<mxfile host="app.diagrams.net" modified="2024-05-03T03:15:49.856Z" agent="Mozilla/5.0 (Linux; Android 10; K) AppleWebKit/537.36 (KHTML, like Gecko) Chrome/124.0.0.0 Mobile Safari/537.36" version="24.2.7" etag="QiZ3usEwwPZzMA4h-1QI" type="github">
  <diagram name="PÃ¡gina-1" id="KdCnjvaJW62axrhG8eUF">
    <mxGraphModel>
      <root>
        <mxCell id="0" />
        <mxCell id="1" parent="0" />
      </root>
    </mxGraphModel>
  </diagram>
</mxfile>
